<svg width="39" height="40" viewBox="0 0 39 40" fill="none" xmlns="http://www.w3.org/2000/svg">
<path d="M2.96267 8.42627L2.96252 8.4266C1.61059 11.2125 1.34425 15.1672 3.72714 20.1222L3.72719 20.1223C6.01752 24.8825 10.7515 30.5245 19.2075 36.6355L19.5003 36.8472L19.7932 36.6355C28.2493 30.5244 32.9807 24.8825 35.2734 20.1225L35.2736 20.1221C37.6563 15.1649 37.3927 11.2126 36.038 8.42626C33.1916 2.5716 25.2567 0.888464 20.8807 5.62727L20.8805 5.62751L19.5001 7.12439L18.1199 5.62983C13.7442 0.891223 5.80917 2.57136 2.96267 8.42627ZM19.1338 4.51919L19.5047 4.91911L19.8709 4.5148C19.9991 4.37324 20.1327 4.23731 20.2713 4.10734L20.2714 4.1074L20.2776 4.1014C25.5314 -0.997437 34.3707 1.23248 37.4291 7.95163C40.4336 14.5523 37.8805 25.8209 19.5003 38.7147C1.12012 25.8221 -1.43356 14.5548 1.57063 7.95418C4.62868 1.23516 13.4679 -0.996123 18.7229 4.09864C18.8629 4.23466 18.9999 4.37484 19.1338 4.51919Z" fill="#DB0909" stroke="#FD0000"/>
</svg>
